<?xml version="1.0" ?><svg id="Icons" viewBox="0 0 60 60" xmlns="http://www.w3.org/2000/svg"><path d="M56,24c-1.47,0-2.746,1.1-3.445,2.915a18.726,18.726,0,0,1-4.981-.8,17.808,17.808,0,0,0-2.4-5.77,18.517,18.517,0,0,1,2.956-4.112c1.777.785,3.456.658,4.493-.379,1.582-1.582.964-4.689-1.412-7.076s-5.49-2.99-7.072-1.408c-1.038,1.038-1.164,2.716-.379,4.494a18.527,18.527,0,0,1-4.112,2.955,17.8,17.8,0,0,0-5.769-2.4,18.64,18.64,0,0,1-.8-4.981C34.9,6.747,36,5.47,36,4c0-2.243-2.636-4-6-4s-6,1.757-6,4c0,1.47,1.1,2.747,2.915,3.445a18.692,18.692,0,0,1-.8,4.981,17.794,17.794,0,0,0-5.769,2.4,18.51,18.51,0,0,1-4.113-2.955c.785-1.779.658-3.457-.379-4.494-1.581-1.581-4.688-.963-7.076,1.412-2.371,2.383-2.99,5.49-1.408,7.072,1.037,1.037,2.715,1.165,4.494.379a18.51,18.51,0,0,1,2.955,4.113,17.794,17.794,0,0,0-2.4,5.769,18.72,18.72,0,0,1-4.981.8C6.747,25.1,5.47,24,4,24c-2.243,0-4,2.636-4,6s1.757,6,4,6c1.47,0,2.746-1.1,3.445-2.914a18.64,18.64,0,0,1,4.981.8,17.794,17.794,0,0,0,2.4,5.769,18.527,18.527,0,0,1-2.955,4.112c-1.779-.785-3.457-.66-4.494.379-1.582,1.582-.963,4.688,1.412,7.076A7.142,7.142,0,0,0,13.562,53.5a3.159,3.159,0,0,0,2.3-.875c1.037-1.038,1.164-2.716.379-4.493a18.517,18.517,0,0,1,4.112-2.956,17.808,17.808,0,0,0,5.77,2.4,18.692,18.692,0,0,1,.8,4.981C25.1,53.254,24,54.529,24,56c0,2.243,2.636,4,6,4s6-1.757,6-4c0-1.47-1.1-2.746-2.914-3.445a18.678,18.678,0,0,1,.8-4.981,17.8,17.8,0,0,0,5.77-2.4,18.531,18.531,0,0,1,4.112,2.956c-.785,1.777-.659,3.455.379,4.493a3.155,3.155,0,0,0,2.294.875,7.151,7.151,0,0,0,4.782-2.287c2.372-2.384,2.99-5.49,1.408-7.072-1.039-1.039-2.719-1.164-4.493-.379a18.531,18.531,0,0,1-2.956-4.112,17.8,17.8,0,0,0,2.4-5.77,18.678,18.678,0,0,1,4.981-.8C53.254,34.9,54.53,36,56,36c2.243,0,4-2.636,4-6S58.243,24,56,24ZM45.707,12.747a1,1,0,0,0,.143-1.181c-.665-1.171-.784-2.288-.293-2.779.667-.666,2.624-.2,4.244,1.409s2.078,3.581,1.412,4.246c-.49.491-1.608.373-2.778-.292a1,1,0,0,0-1.181.143,20.22,20.22,0,0,0-3.377,4.278,18.208,18.208,0,0,0-2.448-2.448A20.209,20.209,0,0,0,45.707,12.747Zm-32.96,1.546a1,1,0,0,0-1.181-.143c-1.171.665-2.288.783-2.779.293-.666-.666-.2-2.624,1.409-4.244s3.582-2.075,4.247-1.412c.49.49.372,1.608-.293,2.779a1,1,0,0,0,.143,1.181,20.177,20.177,0,0,0,4.278,3.376,18.267,18.267,0,0,0-2.448,2.448A20.177,20.177,0,0,0,12.747,14.293Zm1.546,32.961a1,1,0,0,0-.143,1.181c.665,1.17.783,2.288.293,2.778-.669.666-2.625.2-4.244-1.408s-2.078-3.582-1.412-4.248c.49-.489,1.608-.373,2.779.293a1,1,0,0,0,1.181-.143,20.209,20.209,0,0,0,3.376-4.278,18.208,18.208,0,0,0,2.448,2.448A20.22,20.22,0,0,0,14.293,47.254Zm32.96-1.547a1,1,0,0,0,1.182.143c1.17-.665,2.287-.783,2.778-.293.666.666.2,2.624-1.408,4.244s-3.581,2.078-4.248,1.412c-.491-.49-.372-1.608.293-2.778a1,1,0,0,0-.143-1.182,20.273,20.273,0,0,0-4.278-3.376,18.15,18.15,0,0,0,2.448-2.448A20.273,20.273,0,0,0,47.253,45.707ZM56,34c-.684,0-1.405-.894-1.755-2.174a1,1,0,0,0-.935-.736,20.646,20.646,0,0,0-6.92,1.073h0A14.114,14.114,0,0,0,42.4,34.2,1,1,0,0,0,43.6,35.8a10.473,10.473,0,0,1,1.649-1A16.064,16.064,0,0,1,34.8,45.252a10.473,10.473,0,0,1,1-1.649A1,1,0,1,0,34.2,42.4a14.114,14.114,0,0,0-2.037,3.989h0v0h0a20.457,20.457,0,0,0-1.073,6.92,1,1,0,0,0,.736.935C33.106,54.6,34,55.316,34,56c0,.944-1.711,2-4,2s-4-1.056-4-2c0-.684.894-1.405,2.173-1.755a1,1,0,0,0,.737-.935,20.477,20.477,0,0,0-1.072-6.918v0A14.091,14.091,0,0,0,25.8,42.4,1,1,0,1,0,24.2,43.6a10.508,10.508,0,0,1,1,1.648A16.057,16.057,0,0,1,14.749,34.8a10.642,10.642,0,0,1,1.649,1,1,1,0,0,0,1.4-.2,1,1,0,0,0-.2-1.4,14.109,14.109,0,0,0-3.992-2.039h0a20.643,20.643,0,0,0-6.437-1.08c-.162,0-.322,0-.481.007a1,1,0,0,0-.935.736C5.406,33.106,4.684,34,4,34c-.944,0-2-1.711-2-4s1.056-4,2-4c.684,0,1.406.894,1.755,2.174a1,1,0,0,0,.936.736,20.444,20.444,0,0,0,6.917-1.072h0A14.084,14.084,0,0,0,17.6,25.8a1,1,0,0,0-1.2-1.6,10.565,10.565,0,0,1-1.649,1A16.061,16.061,0,0,1,25.2,14.749a10.565,10.565,0,0,1-1,1.649,1,1,0,1,0,1.6,1.2,14.084,14.084,0,0,0,2.039-3.992h0A20.486,20.486,0,0,0,28.91,6.69a1,1,0,0,0-.737-.935C26.894,5.406,26,4.684,26,4c0-.944,1.71-2,4-2s4,1.056,4,2c0,.684-.894,1.405-2.174,1.755a1,1,0,0,0-.736.935,20.444,20.444,0,0,0,1.073,6.919h0A14.109,14.109,0,0,0,34.2,17.6a1,1,0,1,0,1.6-1.2,10.642,10.642,0,0,1-1-1.649A16.057,16.057,0,0,1,45.251,25.2a10.508,10.508,0,0,1-1.648-1A1,1,0,1,0,42.4,25.8a14.091,14.091,0,0,0,3.993,2.039h0A20.49,20.49,0,0,0,53.31,28.91a1,1,0,0,0,.935-.737C54.6,26.894,55.316,26,56,26c.944,0,2,1.71,2,4S56.944,34,56,34Z"/><path d="M30,24c0-2.206-2.243-4-5-4s-5,1.794-5,4,2.243,4,5,4S30,26.206,30,24Zm-8,0c0-1.084,1.374-2,3-2s3,.916,3,2-1.374,2-3,2S22,25.084,22,24Z"/><path d="M27,32c-2.757,0-5,1.794-5,4s2.243,4,5,4,5-1.794,5-4S29.757,32,27,32Zm0,6c-1.626,0-3-.916-3-2s1.374-2,3-2,3,.916,3,2S28.626,38,27,38Z"/><path d="M36,25c-2.757,0-5,1.794-5,4s2.243,4,5,4,5-1.794,5-4S38.757,25,36,25Zm0,6c-1.626,0-3-.916-3-2s1.374-2,3-2,3,.916,3,2S37.626,31,36,31Z"/></svg>